# xmcd
#
# Track frame offsets:
#	151
#	11468
#	24815
#	34704
#	48339
#	61004
#	73045
#	84918
#	96679
#	114248
#	125929
#	138010
#	152541
#	164138
#
# Disc length: 2323 seconds
#
# Revision: 1
# Processed by: cddbd v1.5.2PL0 Copyright (c) Steve Scherf et al.
# Submitted via: audiograbber 1.83.01
#
DISCID=ae09110e
DTITLE=Doug Kershaw - The Ragin Cajun Doug Kershaw
DYEAR=1900
DGENRE=Country
TTITLE0=No Problem
TTITLE1=Back On The Right Track
TTITLE2=Too Hot To Handle
TTITLE3=Stumbling Stone
TTITLE4=I Wana Hold You
TTITLE5=Calling Baton Rouge
TTITLE6=Just Like You
TTITLE7=Fiddling Man
TTITLE8=Cajun Stripper Queen
TTITLE9=Boggie Queen
TTITLE10=Cajun Baby
TTITLE11=Don´t Mess With My Toot Toot
TTITLE12=Lousiana Man
TTITLE13=Jambalaya
EXTD=
EXTT0=
EXTT1=
EXTT2=
EXTT3=
EXTT4=
EXTT5=
EXTT6=
EXTT7=
EXTT8=
EXTT9=
EXTT10=
EXTT11=
EXTT12=
EXTT13=
PLAYORDER=
